<svg width="500" height="417" viewBox="0 0 500 417" fill="none" xmlns="http://www.w3.org/2000/svg">
<circle cx="8" cy="208.5" r="8" fill="#89A0BC"/>
<circle cx="29" cy="208.5" r="8" fill="#89A0BC"/>
<path d="M457.122 213.45C454.491 325.762 362.565 416 249.549 416L248.206 415.996C136.137 415.287 45.1349 325.849 42 214.442H58.0068C61.1488 317.446 145.693 400 249.549 400C353.737 400 438.491 316.916 441.118 213.45H457.122ZM433.242 213.45C430.103 312.139 349.062 391.18 249.548 391.18L248.359 391.176C149.723 390.551 69.523 312.275 65.8887 214.442H81.9023C85.5417 303.82 159.196 375.179 249.548 375.18C340.234 375.18 414.099 303.292 417.231 213.45H433.242ZM250.892 1.00391C360.946 1.70063 450.685 87.965 456.844 196.572H440.814C434.652 96.3742 351.385 17.0002 249.549 17C147.377 17 63.8951 96.8986 58.2236 197.564H42.2002C47.8902 88.0488 138.547 1 249.549 1L250.892 1.00391ZM249.548 23.835C347.378 23.835 427.353 100.224 433.014 196.572H416.985C411.348 109.075 338.548 39.835 249.548 39.835C160.212 39.8353 87.201 109.599 82.0527 197.564H66.0264C71.1943 100.749 151.382 23.8353 249.548 23.835Z" fill="#89A0BC"/>
<circle cx="470.122" cy="208.5" r="8" fill="#89A0BC"/>
<circle cx="491.122" cy="208.5" r="8" fill="#89A0BC"/>
<path d="M86.5927 234V180.973H107.686C119.405 180.973 125.265 186.612 125.265 194.596C125.265 200.821 121.236 204.703 115.743 205.948V206.461C121.749 206.754 127.389 211.515 127.389 219.352C127.389 227.774 121.09 234 109.078 234H86.5927ZM106.881 224.918C113.253 224.918 115.963 222.281 115.963 218.326C115.963 213.858 112.594 210.709 107.174 210.709H97.579V224.918H106.881ZM106.075 203.165C110.689 203.165 114.132 200.602 114.132 196.354C114.132 192.545 111.349 189.908 106.295 189.908H97.579V203.165H106.075ZM133.902 234V194.229H144.742V234H133.902ZM139.322 189.029C136.026 189.029 133.389 186.539 133.389 183.536C133.389 180.46 136.026 177.97 139.322 177.97C142.544 177.97 145.181 180.46 145.181 183.536C145.181 186.539 142.544 189.029 139.322 189.029ZM170.811 234.806C158.799 234.806 151.328 226.529 151.328 214.225C151.328 201.92 158.799 193.717 170.811 193.717C182.822 193.717 190.366 201.92 190.366 214.225C190.366 226.529 182.822 234.806 170.811 234.806ZM170.884 226.383C176.45 226.383 179.307 221.183 179.307 214.225C179.307 207.193 176.45 201.993 170.884 201.993C165.244 201.993 162.315 207.193 162.315 214.225C162.315 221.183 165.244 226.383 170.884 226.383ZM241.411 180.973V234H231.889L208.598 200.309H208.159V234H197.173V180.973H206.841L229.985 214.664H230.498V180.973H241.411ZM267.919 234.806C255.761 234.806 248.29 226.896 248.29 214.298C248.29 201.993 255.834 193.717 267.48 193.717C277.953 193.717 286.157 200.309 286.157 213.858V216.935H258.984C258.984 222.94 262.573 226.676 268.139 226.676C271.801 226.676 274.438 225.064 275.536 222.647H285.864C284.326 229.972 277.734 234.806 267.919 234.806ZM258.984 210.123H275.903C275.903 205.289 272.534 201.847 267.7 201.847C262.719 201.847 259.167 205.545 258.984 210.123ZM301.093 194.229L308.49 208.219L316.034 194.229H327.24L315.595 214.078L327.533 234H316.4L308.49 220.157L300.726 234H289.447L301.312 214.078L289.887 194.229H301.093ZM358.656 217.081V194.229H369.496V234H359.095V226.822H358.656C356.825 231.437 352.577 234.513 346.571 234.513C338.587 234.513 333.167 228.873 333.167 219.571V194.229H344.007V217.667C344.007 222.354 346.717 225.357 350.965 225.357C354.92 225.357 358.656 222.501 358.656 217.081ZM400.399 206.021C399.959 203.238 397.469 201.407 393.88 201.407C390.364 201.407 387.654 203.092 387.728 205.509C387.654 207.267 389.119 208.658 392.855 209.464L399.959 210.929C407.65 212.54 411.385 215.982 411.458 221.695C411.385 229.532 404.354 234.806 393.807 234.806C383.04 234.806 376.741 229.972 375.862 222.208H386.775C387.288 225.357 389.852 226.969 393.807 226.969C397.762 226.969 400.399 225.357 400.399 222.794C400.399 220.743 398.714 219.498 394.979 218.692L388.387 217.374C380.843 215.909 376.888 211.954 376.961 206.095C376.888 198.478 383.48 193.717 393.733 193.717C403.768 193.717 409.993 198.478 410.579 206.021H400.399Z" fill="black"/>
</svg>
